<svg width="32" height="21" viewBox="0 0 32 21" fill="none" xmlns="http://www.w3.org/2000/svg">
    <path d="M29.1343 0H2.86575C2.75634 0 2.64674 0 2.53754 0.000637985C2.44522 0.0012953 2.35312 0.00231995 2.26101 0.00483322C2.06015 0.0102658 1.85756 0.0221168 1.6592 0.0577667C1.45768 0.0940351 1.27015 0.153194 1.0872 0.24634C0.907346 0.337803 0.742688 0.457435 0.599993 0.600189C0.457237 0.742943 0.337606 0.907331 0.246161 1.08738C0.152996 1.27033 0.0937985 1.45791 0.0577814 1.65959C0.0219401 1.85801 0.0100098 2.06056 0.00459659 2.26121C0.00212198 2.35331 0.0010606 2.44542 0.000459349 2.5375C-0.000178636 2.64694 3.40259e-05 2.75631 3.40259e-05 2.86595V17.6204C3.40259e-05 17.73 -0.000178636 17.8392 0.000459349 17.9488C0.0010606 18.0409 0.00212198 18.133 0.00459659 18.2251C0.0100098 18.4256 0.0219401 18.6282 0.0577814 18.8265C0.0937985 19.0283 0.152996 19.2158 0.246161 19.3988C0.337606 19.5788 0.457237 19.7434 0.599993 19.8859C0.742688 20.0289 0.907346 20.1485 1.0872 20.2398C1.27015 20.3332 1.45768 20.3923 1.6592 20.4286C1.85756 20.464 2.06015 20.4761 2.26101 20.4815C2.35312 20.4836 2.44522 20.4848 2.53754 20.4853C2.64674 20.4861 2.75634 20.4861 2.86575 20.4861H29.1343C29.2435 20.4861 29.3531 20.4861 29.4623 20.4853C29.5544 20.4848 29.6465 20.4836 29.739 20.4815C29.9395 20.4761 30.142 20.464 30.3409 20.4286C30.5421 20.3923 30.7297 20.3332 30.9126 20.2398C31.0927 20.1485 31.2569 20.0289 31.3999 19.8859C31.5424 19.7434 31.662 19.5788 31.7537 19.3988C31.8471 19.2158 31.9062 19.0283 31.942 18.8265C31.9779 18.6282 31.9895 18.4256 31.995 18.2251C31.9975 18.133 31.9987 18.0409 31.9991 17.9488C32 17.8392 32 17.73 32 17.6204V2.86595C32 2.75631 32 2.64694 31.9991 2.5375C31.9987 2.44542 31.9975 2.35331 31.995 2.26121C31.9895 2.06056 31.9779 1.85801 31.942 1.65959C31.9062 1.45791 31.8471 1.27033 31.7537 1.08738C31.662 0.907331 31.5424 0.742943 31.3999 0.600189C31.2569 0.457435 31.0927 0.337803 30.9126 0.24634C30.7297 0.153194 30.5421 0.0940351 30.3409 0.0577667C30.142 0.0221168 29.9395 0.0102658 29.739 0.00483322C29.6465 0.00231995 29.5544 0.0012953 29.4623 0.000637985C29.3531 0 29.2435 0 29.1343 0Z" fill="black"/>
    <path d="M29.1373 0.685913L29.4605 0.686532C29.548 0.68715 29.6356 0.688098 29.7236 0.690495C29.8767 0.694632 30.0558 0.702926 30.2228 0.732853C30.3679 0.758991 30.4896 0.79874 30.6065 0.858208C30.7218 0.916806 30.8274 0.993596 30.9197 1.08572C31.0123 1.17846 31.0892 1.28429 31.1485 1.40088C31.2077 1.51678 31.2472 1.63792 31.2732 1.78412C31.303 1.94926 31.3113 2.12886 31.3155 2.28293C31.3178 2.36988 31.319 2.45684 31.3194 2.54587C31.3202 2.65354 31.3202 2.76114 31.3202 2.86902V17.6235C31.3202 17.7313 31.3202 17.8387 31.3194 17.9487C31.319 18.0357 31.3178 18.1226 31.3154 18.2097C31.3113 18.3636 31.303 18.5431 31.2728 18.7102C31.2472 18.8543 31.2077 18.9755 31.1482 19.092C31.089 19.2083 31.0123 19.314 30.9201 19.4062C30.8273 19.499 30.722 19.5755 30.6053 19.6347C30.4894 19.6938 30.3678 19.7335 30.2241 19.7594C30.0538 19.7898 29.8672 19.7981 29.7266 19.8019C29.6382 19.8039 29.5502 19.8051 29.4601 19.8055C29.3526 19.8064 29.2448 19.8063 29.1373 19.8063H2.86881C2.86738 19.8063 2.86599 19.8063 2.86454 19.8063C2.75832 19.8063 2.65189 19.8063 2.54375 19.8055C2.45557 19.8051 2.36758 19.8039 2.28252 19.802C2.13876 19.7981 1.95202 19.7898 1.78307 19.7596C1.63814 19.7335 1.51663 19.6938 1.39916 19.6339C1.28357 19.5753 1.17834 19.4988 1.08552 19.4058C0.993422 19.3139 0.916883 19.2085 0.857705 19.092C0.798469 18.9756 0.758837 18.8541 0.732778 18.7082C0.702655 18.5414 0.694381 18.3626 0.690246 18.2099C0.687885 18.1224 0.686899 18.0349 0.686338 17.948L0.685913 17.6912L0.685932 17.6235V2.86902L0.685913 2.80124L0.686319 2.54506C0.686899 2.45758 0.687885 2.37012 0.690246 2.28271C0.694381 2.12977 0.702655 1.9509 0.733027 1.78275C0.758856 1.63815 0.798469 1.51663 0.858014 1.39968C0.916728 1.28409 0.993403 1.17857 1.08599 1.08601C1.17821 0.993751 1.28378 0.917057 1.40011 0.857898C1.51632 0.79872 1.63806 0.758991 1.783 0.732911C1.94999 0.702907 2.12923 0.694632 2.28273 0.690476C2.37023 0.688098 2.45773 0.68715 2.54458 0.686551L2.86881 0.685913H29.1373Z" fill="white"/>
    <path d="M8.73961 6.88945C9.01361 6.54674 9.19954 6.08659 9.1505 5.61636C8.74941 5.63631 8.25996 5.88097 7.97659 6.22395C7.72216 6.51766 7.49696 6.99708 7.55567 7.44759C8.00591 7.48664 8.45574 7.22254 8.73961 6.88945Z" fill="black"/>
    <path d="M9.14186 7.53192C8.488 7.49297 7.93206 7.90302 7.61981 7.90302C7.30739 7.90302 6.82923 7.55155 6.31206 7.56102C5.63893 7.57091 5.01435 7.9515 4.67277 8.55682C3.97019 9.76775 4.48736 11.564 5.17058 12.5502C5.50236 13.0382 5.90222 13.5754 6.4291 13.5561C6.92691 13.5366 7.12203 13.2338 7.72714 13.2338C8.33181 13.2338 8.50757 13.5561 9.03453 13.5463C9.581 13.5366 9.92265 13.0582 10.2544 12.5698C10.6351 12.0136 10.7909 11.4765 10.8007 11.447C10.7909 11.4372 9.74691 11.0368 9.73723 9.83589C9.72738 8.83038 10.5568 8.35211 10.5959 8.32245C10.1275 7.62966 9.39559 7.55155 9.14186 7.53192Z" fill="black"/>
    <path d="M14.8354 6.17439C16.2566 6.17439 17.2462 7.15401 17.2462 8.58025C17.2462 10.0116 16.2362 10.9963 14.7998 10.9963H13.2263V13.4986H12.0895V6.17439L14.8354 6.17439ZM13.2263 10.042H14.5308C15.5206 10.042 16.0839 9.50915 16.0839 8.58534C16.0839 7.66163 15.5206 7.13374 14.5359 7.13374H13.2263V10.042Z" fill="black"/>
    <path d="M17.5463 11.9829C17.5463 11.0489 18.262 10.4754 19.531 10.4044L20.9927 10.3181V9.90701C20.9927 9.31313 20.5917 8.95784 19.9218 8.95784C19.2872 8.95784 18.8913 9.26232 18.795 9.7395H17.7596C17.8205 8.77506 18.6426 8.06448 19.9624 8.06448C21.2566 8.06448 22.0839 8.7497 22.0839 9.82066V13.5005H21.0332V12.6224H21.008C20.6984 13.2163 20.0233 13.5919 19.3229 13.5919C18.2773 13.5919 17.5463 12.9422 17.5463 11.9829ZM20.9927 11.5008V11.0795L19.6781 11.1607C19.0233 11.2064 18.6528 11.4957 18.6528 11.9525C18.6528 12.4194 19.0386 12.724 19.6273 12.724C20.3937 12.724 20.9927 12.1961 20.9927 11.5008Z" fill="black"/>
    <path d="M23.0739 15.4598V14.5716C23.1549 14.5918 23.3376 14.5918 23.429 14.5918C23.9366 14.5918 24.2107 14.3787 24.3781 13.8306C24.3781 13.8204 24.4746 13.5057 24.4746 13.5006L22.546 8.15593H23.7335L25.0838 12.5007H25.104L26.4542 8.15593H27.6114L25.6115 13.7747C25.1549 15.069 24.627 15.4852 23.5205 15.4852C23.429 15.4852 23.1549 15.475 23.0739 15.4598Z" fill="black"/>
    </svg>
